#N canvas 1280 0 1270 987 10;
#X floatatom 161 286 5 0 0 0 - - -, f 5;
#X obj 280 8 import mrpeach;
#X obj 64 206 mrpeach/slipdec 65536;
#X obj 64 158 comport;
#X obj 103 182 print errors;
#X msg 20 31 devices;
#X msg 61 86 open 12;
#X msg 136 124 baud 115200;
#X msg 161 31 close;
#X obj 109 32 bng 15 250 50 0 empty empty empty 17 7 0 10 #fcfcfc #000000
#000000;
#X obj 109 53 t b b;
#X obj 65 234 unpackOSC;
#X floatatom 65 325 5 0 0 0 - - -, f 5;
#N canvas 1280 0 1270 1012 escala 0;
#X floatatom 310 310 5 0 0 0 - - -, f 5;
#X msg 53 111 51;
#X msg 89 111 53;
#X msg 122 111 54;
#X msg 156 113 55;
#X msg 190 113 58;
#X msg 226 113 60;
#X msg 258 114 63;
#X msg 293 110 65;
#X msg 329 112 66;
#X msg 362 110 67;
#X msg 389 111 70;
#X msg 422 113 72, f 2;
#X obj 188 -499 inlet;
#X obj 311 351 outlet;
#X msg 19 113 48;
#X obj 162 -461 moses 6;
#X obj 169 -419 moses 11;
#X obj 192 -391 moses 16;
#X obj 207 -361 moses 21;
#X obj 223 -325 moses 26;
#X obj 244 -294 moses 31;
#X obj 266 -257 moses 36;
#X obj 284 -224 moses 41;
#X obj 306 -189 moses 46;
#X obj 328 -154 moses 46;
#X obj 355 -115 moses 51;
#X obj 383 -80 moses 56;
#X obj 411 -42 moses 61;
#X obj 438 -6 moses 66;
#X msg 444 111 75;
#X floatatom 831 312 5 0 0 0 - - -, f 5;
#X msg 574 113 51;
#X msg 610 113 53;
#X msg 643 113 54;
#X msg 677 115 55;
#X msg 711 115 58;
#X msg 747 115 60;
#X msg 779 116 63;
#X msg 814 112 65;
#X msg 850 114 66;
#X msg 883 112 67;
#X msg 910 113 70;
#X msg 943 115 72, f 2;
#X obj 709 -497 inlet;
#X obj 832 353 outlet;
#X msg 540 115 48;
#X obj 713 -389 moses 16;
#X msg 965 113 75;
#X obj 690 -417 moses 13;
#X obj 728 -359 moses 19;
#X obj 744 -323 moses 22;
#X obj 765 -292 moses 25;
#X obj 787 -255 moses 28;
#X obj 805 -222 moses 31;
#X obj 827 -187 moses 34;
#X obj 849 -152 moses 37;
#X obj 684 -460 moses 10;
#X obj 876 -113 moses 40;
#X obj 904 -78 moses 43;
#X obj 932 -40 moses 46;
#X obj 959 -4 moses 49;
#X connect 0 0 14 0;
#X connect 1 0 0 0;
#X connect 2 0 0 0;
#X connect 3 0 0 0;
#X connect 4 0 0 0;
#X connect 5 0 0 0;
#X connect 6 0 0 0;
#X connect 7 0 0 0;
#X connect 8 0 0 0;
#X connect 9 0 0 0;
#X connect 10 0 0 0;
#X connect 11 0 0 0;
#X connect 12 0 0 0;
#X connect 13 0 16 0;
#X connect 15 0 0 0;
#X connect 16 0 15 0;
#X connect 16 1 17 0;
#X connect 17 0 1 0;
#X connect 17 1 18 0;
#X connect 18 0 2 0;
#X connect 18 1 19 0;
#X connect 19 0 3 0;
#X connect 19 1 20 0;
#X connect 20 0 4 0;
#X connect 20 1 21 0;
#X connect 21 0 5 0;
#X connect 21 1 22 0;
#X connect 22 0 6 0;
#X connect 22 1 23 0;
#X connect 23 0 7 0;
#X connect 23 1 24 0;
#X connect 24 0 8 0;
#X connect 24 1 25 0;
#X connect 25 0 9 0;
#X connect 25 1 26 0;
#X connect 26 0 10 0;
#X connect 26 1 27 0;
#X connect 27 0 11 0;
#X connect 27 1 28 0;
#X connect 28 0 12 0;
#X connect 28 1 29 0;
#X connect 29 0 30 0;
#X connect 30 0 0 0;
#X connect 31 0 45 0;
#X connect 32 0 31 0;
#X connect 33 0 31 0;
#X connect 34 0 31 0;
#X connect 35 0 31 0;
#X connect 36 0 31 0;
#X connect 37 0 31 0;
#X connect 38 0 31 0;
#X connect 39 0 31 0;
#X connect 40 0 31 0;
#X connect 41 0 31 0;
#X connect 42 0 31 0;
#X connect 43 0 31 0;
#X connect 44 0 57 0;
#X connect 46 0 31 0;
#X connect 47 0 33 0;
#X connect 47 1 50 0;
#X connect 48 0 31 0;
#X connect 49 0 32 0;
#X connect 49 1 47 0;
#X connect 50 0 34 0;
#X connect 50 1 51 0;
#X connect 51 0 35 0;
#X connect 51 1 52 0;
#X connect 52 0 36 0;
#X connect 52 1 53 0;
#X connect 53 0 37 0;
#X connect 53 1 54 0;
#X connect 54 0 38 0;
#X connect 54 1 55 0;
#X connect 55 0 39 0;
#X connect 55 1 56 0;
#X connect 56 0 40 0;
#X connect 56 1 58 0;
#X connect 57 0 46 0;
#X connect 57 1 49 0;
#X connect 58 0 41 0;
#X connect 58 1 59 0;
#X connect 59 0 42 0;
#X connect 59 1 60 0;
#X connect 60 0 43 0;
#X connect 60 1 61 0;
#X connect 61 0 48 0;
#X restore 33 376 pd escala;
#X obj 177 600 makenote;
#X floatatom 198 568 5 0 0 0 - - -, f 5;
#X floatatom 249 569 5 0 0 0 - - -, f 5;
#X obj 435 890 noteout 1;
#X obj 546 909 pgmout 1;
#X floatatom 546 881 5 0 127 0 - - -, f 5;
#X obj 107 439 change;
#X obj 123 373 change;
#X obj 129 403 sel 70;
#X obj 513 824 loadbang;
#X msg 531 855 102;
#X msg 586 834 11;
#X obj 1086 858 fluid~;
#X obj 1098 731 bng 15 250 50 0 empty empty empty 17 7 0 10 #fcfcfc
#000000 #000000;
#X obj 1099 754 openpanel;
#X msg 1100 777 load \$1;
#X obj 928 862 bng 15 250 50 0 empty empty empty 17 7 0 10 #fcfcfc
#000000 #000000;
#X obj 943 805 r \$0-notamidi;
#X obj 1082 932 dac~ 1 2;
#X obj 1106 580 getdir;
#X obj 980 551 t b b;
#X obj 979 519 r \$0-loadsf2;
#X obj 1057 656 pack s s;
#X msg 1057 691 init \$2/\$1;
#X msg 185 652 \$3 \$1 \$2;
#X obj 184 689 s \$0-notamidi;
#X obj 185 630 pack 0 0 1;
#X obj 553 192 s \$0-iiwu;
#X msg 553 145 prog 1 \$1;
#X msg 633 145 p 2 \$1;
#X floatatom 553 115 5 0 0 0 - - -, f 5;
#X floatatom 633 115 5 0 0 0 - - -, f 5;
#X msg 707 139 bank 1 \$1;
#X floatatom 707 120 5 0 0 0 - - -, f 5;
#X text 707 160 bank select;
#X obj 1129 809 r \$0-iiwu;
#X msg 517 59 1;
#X msg 546 61 2;
#X msg 580 60 3;
#X msg 614 60 4;
#X msg 644 60 5;
#X msg 205 494 0;
#X msg 285 493 127;
#X msg 246 494 64;
#X obj 1068 903 *~ 0.1;
#X obj 1127 903 *~ 0.1, f 7;
#X obj 1046 237 hsl 128 15 0 1 0 1 empty empty empty -2 -8 0 10 #fcfcfc
#000000 #000000 11600 1;
#X floatatom 1046 260 5 0 0 0 - - -, f 5;
#X obj 1046 284 s $volume;
#X obj 1152 855 r $volume;
#X msg 482 59 0;
#X obj 65 292 moses 71;
#X floatatom 114 325 5 0 0 0 - - -, f 5;
#X obj 65 753 key;
#X obj 205 454 r $pitch;
#X obj 148 489 + \$1;
#X floatatom 64 782 5 0 0 0 - - -, f 5;
#X msg 47 873 0;
#X obj 49 940 s $pitch;
#X msg 283 877 6;
#X obj 62 815 sel 49 50 51 52 53 54 55;
#X msg 84 871 3;
#X msg 127 871 5;
#X msg 169 874 7;
#X msg 206 876 9;
#X msg 245 876 12;
#X obj 65 261 routeOSC /sensor;
#X floatatom 137 635 5 0 0 0 - - -, f 5;
#X obj 1030 35 loadbang;
#X obj 1082 133 dsp;
#X floatatom 1083 177 5 0 0 0 - - -, f 5;
#X floatatom 1099 156 5 0 0 0 - - -, f 5;
#X obj 1082 115 tgl 15 0 empty empty empty 17 7 0 10 #fcfcfc #000000
#000000 1 1;
#X msg 1081 95 0;
#X obj 1043 68 t b b;
#X obj 1045 199 s \$0-loadsf2;
#X obj 936 441 bng 15 250 50 0 empty empty empty 17 7 0 10 #fcfcfc
#000000 #000000;
#X obj 435 854 r \$0-notamidi;
#X obj 337 409 loadbang;
#X msg 323 494 1500;
#X msg 902 600 sound/Plastic_Strings.sf2;
#X obj 443 357 bonk~;
#X obj 442 389 bng 15 250 50 0 empty empty empty 17 7 0 10 #fcfcfc
#000000 #000000;
#X obj 526 396 unpack f f;
#X floatatom 529 422 5 0 0 0 - - -, f 5;
#X floatatom 588 421 5 0 0 0 - - -, f 5;
#X obj 426 318 adc~;
#X msg 470 316 minvel 70;
#X obj 469 277 hsl 128 15 0 127 0 0 empty empty empty -2 -8 0 10 #fcfcfc
#000000 #000000 0 1;
#X obj 807 728 fluid~;
#X obj 819 601 bng 15 250 50 0 empty empty empty 17 7 0 10 #fcfcfc
#000000 #000000;
#X obj 820 624 openpanel;
#X msg 821 647 load \$1;
#X obj 649 732 bng 15 250 50 0 empty empty empty 17 7 0 10 #fcfcfc
#000000 #000000;
#X obj 803 802 dac~ 1 2;
#X obj 827 450 getdir;
#X obj 701 421 t b b;
#X obj 706 338 r \$0-loadsf2;
#X obj 778 526 pack s s;
#X msg 778 561 init \$2/\$1;
#X obj 850 679 r \$0-iiwu;
#X obj 789 773 *~ 0.1;
#X obj 848 773 *~ 0.1, f 7;
#X obj 873 725 r $volume;
#X obj 657 311 bng 15 250 50 0 empty empty empty 17 7 0 10 #fcfcfc
#000000 #000000;
#X msg 623 470 sound/JR_noises2.SF2;
#X obj 664 675 r \$0-notabonk;
#X obj 500 607 s \$0-notabonk;
#X obj 492 519 makenote;
#X msg 500 571 \$3 \$1 \$2;
#X obj 500 549 pack 0 0 1;
#X msg 443 455 50;
#X msg 489 461 500;
#X obj 443 411 t b b;
#X connect 2 0 11 0;
#X connect 3 0 2 0;
#X connect 3 1 4 0;
#X connect 5 0 3 0;
#X connect 6 0 3 0;
#X connect 7 0 3 0;
#X connect 8 0 3 0;
#X connect 9 0 10 0;
#X connect 10 0 6 0;
#X connect 10 1 7 0;
#X connect 11 0 80 0;
#X connect 12 0 21 0;
#X connect 12 0 13 1;
#X connect 13 1 20 0;
#X connect 14 0 40 0;
#X connect 14 1 40 1;
#X connect 15 0 14 1;
#X connect 16 0 14 2;
#X connect 19 0 18 0;
#X connect 20 0 69 0;
#X connect 21 0 22 0;
#X connect 22 0 20 0;
#X connect 23 0 24 0;
#X connect 24 0 19 0;
#X connect 25 0 19 0;
#X connect 26 0 58 0;
#X connect 26 1 59 0;
#X connect 27 0 28 0;
#X connect 28 0 29 0;
#X connect 29 0 26 0;
#X connect 31 0 30 0;
#X connect 31 0 26 0;
#X connect 33 0 36 1;
#X connect 34 0 94 0;
#X connect 34 1 33 0;
#X connect 35 0 34 0;
#X connect 36 0 37 0;
#X connect 37 0 26 0;
#X connect 38 0 39 0;
#X connect 40 0 38 0;
#X connect 42 0 41 0;
#X connect 43 0 41 0;
#X connect 44 0 42 0;
#X connect 45 0 43 0;
#X connect 46 0 41 0;
#X connect 47 0 46 0;
#X connect 49 0 26 0;
#X connect 50 0 44 0;
#X connect 51 0 44 0;
#X connect 52 0 44 0;
#X connect 53 0 44 0;
#X connect 54 0 44 0;
#X connect 55 0 15 0;
#X connect 56 0 15 0;
#X connect 57 0 15 0;
#X connect 58 0 32 0;
#X connect 59 0 32 1;
#X connect 60 0 61 0;
#X connect 61 0 62 0;
#X connect 63 0 58 1;
#X connect 63 0 59 1;
#X connect 64 0 44 0;
#X connect 65 0 12 0;
#X connect 65 1 66 0;
#X connect 67 0 70 0;
#X connect 68 0 69 1;
#X connect 69 0 14 0;
#X connect 69 0 81 0;
#X connect 70 0 74 0;
#X connect 71 0 72 0;
#X connect 73 0 72 0;
#X connect 74 0 71 0;
#X connect 74 1 75 0;
#X connect 74 2 76 0;
#X connect 74 3 77 0;
#X connect 74 4 78 0;
#X connect 74 5 79 0;
#X connect 74 6 73 0;
#X connect 75 0 72 0;
#X connect 76 0 72 0;
#X connect 77 0 72 0;
#X connect 78 0 72 0;
#X connect 79 0 72 0;
#X connect 80 0 65 0;
#X connect 80 1 0 0;
#X connect 82 0 88 0;
#X connect 83 0 84 0;
#X connect 83 1 85 0;
#X connect 86 0 83 0;
#X connect 87 0 86 0;
#X connect 88 0 89 0;
#X connect 88 1 87 0;
#X connect 90 0 34 0;
#X connect 92 0 57 0;
#X connect 92 0 93 0;
#X connect 93 0 16 0;
#X connect 94 0 36 0;
#X connect 95 0 96 0;
#X connect 95 1 97 0;
#X connect 96 0 127 0;
#X connect 97 0 98 0;
#X connect 97 1 99 0;
#X connect 99 0 122 1;
#X connect 100 0 95 0;
#X connect 101 0 95 0;
#X connect 102 0 101 0;
#X connect 103 0 115 0;
#X connect 103 1 116 0;
#X connect 104 0 105 0;
#X connect 105 0 106 0;
#X connect 106 0 103 0;
#X connect 109 0 112 1;
#X connect 110 0 119 0;
#X connect 110 1 109 0;
#X connect 111 0 110 0;
#X connect 112 0 113 0;
#X connect 113 0 103 0;
#X connect 114 0 103 0;
#X connect 115 0 108 0;
#X connect 116 0 108 1;
#X connect 117 0 115 1;
#X connect 117 0 116 1;
#X connect 118 0 110 0;
#X connect 119 0 112 0;
#X connect 120 0 107 0;
#X connect 120 0 103 0;
#X connect 122 0 124 0;
#X connect 122 1 124 1;
#X connect 123 0 121 0;
#X connect 124 0 123 0;
#X connect 125 0 122 0;
#X connect 126 0 122 2;
#X connect 127 0 125 0;
#X connect 127 1 126 0;
