#N canvas 482 0 1602 995 10;
#X obj 823 466 cnv 15 323 347 empty empty empty 20 12 0 14 #a4ffa4
#404040 0;
#X obj 476 125 cnv 15 334 687 empty empty empty 20 12 0 14 #ffbd9d
#404040 0;
#X obj 36 123 cnv 15 426 690 empty empty empty 20 12 0 14 #bcf0f3 #404040
0;
#X obj 822 128 cnv 15 323 299 empty empty empty 20 12 0 14 #a4ffa4
#404040 0;
#X floatatom 201 406 5 0 0 0 - - -, f 5;
#X obj 371 128 import mrpeach;
#X obj 104 326 mrpeach/slipdec 65536;
#X obj 104 278 comport;
#X obj 143 302 print errors;
#X msg 187 187 devices;
#X msg 187 227 open 12;
#X msg 105 213 baud 115200;
#X msg 187 251 close;
#X obj 104 148 bng 15 250 50 0 empty empty empty 17 7 0 10 #fcfcfc
#000000 #000000;
#X obj 105 354 unpackOSC;
#X floatatom 105 445 5 0 0 0 - - -, f 5;
#N canvas 1280 0 1270 1012 escala 0;
#X floatatom 310 310 5 0 0 0 - - -, f 5;
#X msg 53 111 51;
#X msg 89 111 53;
#X msg 122 111 54;
#X msg 156 113 55;
#X msg 190 113 58;
#X msg 226 113 60;
#X msg 258 114 63;
#X msg 293 110 65;
#X msg 329 112 66;
#X msg 362 110 67;
#X msg 389 111 70;
#X msg 422 113 72, f 2;
#X obj 188 -499 inlet;
#X obj 311 351 outlet;
#X msg 19 113 48;
#X obj 162 -461 moses 6;
#X obj 169 -419 moses 11;
#X obj 192 -391 moses 16;
#X obj 207 -361 moses 21;
#X obj 223 -325 moses 26;
#X obj 244 -294 moses 31;
#X obj 266 -257 moses 36;
#X obj 284 -224 moses 41;
#X obj 306 -189 moses 46;
#X obj 328 -154 moses 46;
#X obj 355 -115 moses 51;
#X obj 383 -80 moses 56;
#X obj 411 -42 moses 61;
#X obj 438 -6 moses 66;
#X msg 444 111 75;
#X floatatom 831 312 5 0 0 0 - - -, f 5;
#X msg 574 113 51;
#X msg 610 113 53;
#X msg 643 113 54;
#X msg 677 115 55;
#X msg 711 115 58;
#X msg 747 115 60;
#X msg 779 116 63;
#X msg 814 112 65;
#X msg 850 114 66;
#X msg 883 112 67;
#X msg 910 113 70;
#X msg 943 115 72, f 2;
#X obj 709 -497 inlet;
#X obj 832 353 outlet;
#X msg 540 115 48;
#X obj 713 -389 moses 16;
#X msg 965 113 75;
#X obj 690 -417 moses 13;
#X obj 728 -359 moses 19;
#X obj 744 -323 moses 22;
#X obj 765 -292 moses 25;
#X obj 787 -255 moses 28;
#X obj 805 -222 moses 31;
#X obj 827 -187 moses 34;
#X obj 849 -152 moses 37;
#X obj 684 -460 moses 10;
#X obj 876 -113 moses 40;
#X obj 904 -78 moses 43;
#X obj 932 -40 moses 46;
#X obj 959 -4 moses 49;
#X connect 0 0 14 0;
#X connect 1 0 0 0;
#X connect 2 0 0 0;
#X connect 3 0 0 0;
#X connect 4 0 0 0;
#X connect 5 0 0 0;
#X connect 6 0 0 0;
#X connect 7 0 0 0;
#X connect 8 0 0 0;
#X connect 9 0 0 0;
#X connect 10 0 0 0;
#X connect 11 0 0 0;
#X connect 12 0 0 0;
#X connect 13 0 16 0;
#X connect 15 0 0 0;
#X connect 16 0 15 0;
#X connect 16 1 17 0;
#X connect 17 0 1 0;
#X connect 17 1 18 0;
#X connect 18 0 2 0;
#X connect 18 1 19 0;
#X connect 19 0 3 0;
#X connect 19 1 20 0;
#X connect 20 0 4 0;
#X connect 20 1 21 0;
#X connect 21 0 5 0;
#X connect 21 1 22 0;
#X connect 22 0 6 0;
#X connect 22 1 23 0;
#X connect 23 0 7 0;
#X connect 23 1 24 0;
#X connect 24 0 8 0;
#X connect 24 1 25 0;
#X connect 25 0 9 0;
#X connect 25 1 26 0;
#X connect 26 0 10 0;
#X connect 26 1 27 0;
#X connect 27 0 11 0;
#X connect 27 1 28 0;
#X connect 28 0 12 0;
#X connect 28 1 29 0;
#X connect 29 0 30 0;
#X connect 30 0 0 0;
#X connect 31 0 45 0;
#X connect 32 0 31 0;
#X connect 33 0 31 0;
#X connect 34 0 31 0;
#X connect 35 0 31 0;
#X connect 36 0 31 0;
#X connect 37 0 31 0;
#X connect 38 0 31 0;
#X connect 39 0 31 0;
#X connect 40 0 31 0;
#X connect 41 0 31 0;
#X connect 42 0 31 0;
#X connect 43 0 31 0;
#X connect 44 0 57 0;
#X connect 46 0 31 0;
#X connect 47 0 33 0;
#X connect 47 1 50 0;
#X connect 48 0 31 0;
#X connect 49 0 32 0;
#X connect 49 1 47 0;
#X connect 50 0 34 0;
#X connect 50 1 51 0;
#X connect 51 0 35 0;
#X connect 51 1 52 0;
#X connect 52 0 36 0;
#X connect 52 1 53 0;
#X connect 53 0 37 0;
#X connect 53 1 54 0;
#X connect 54 0 38 0;
#X connect 54 1 55 0;
#X connect 55 0 39 0;
#X connect 55 1 56 0;
#X connect 56 0 40 0;
#X connect 56 1 58 0;
#X connect 57 0 46 0;
#X connect 57 1 49 0;
#X connect 58 0 41 0;
#X connect 58 1 59 0;
#X connect 59 0 42 0;
#X connect 59 1 60 0;
#X connect 60 0 43 0;
#X connect 60 1 61 0;
#X connect 61 0 48 0;
#X restore 53 474 pd escala;
#X obj 132 646 makenote;
#X floatatom 153 614 5 0 0 0 - - -, f 5;
#X floatatom 204 615 5 0 0 0 - - -, f 5;
#X obj 103 498 change;
#X obj 573 450 fluid~;
#X obj 585 323 bng 15 250 50 0 empty empty empty 17 7 0 10 #fcfcfc
#000000 #000000;
#X obj 586 346 openpanel;
#X msg 587 369 load \$1;
#X obj 488 442 bng 15 250 50 0 empty empty empty 17 7 0 10 #fcfcfc
#000000 #000000;
#X obj 489 420 r \$0-notamidi;
#X obj 569 524 dac~ 1 2;
#X obj 620 214 getdir;
#X obj 574 195 t b b;
#X obj 573 171 r \$0-loadsf2;
#X obj 574 263 pack s s;
#X msg 574 298 init \$2/\$1;
#X msg 140 698 \$3 \$1 \$2;
#X obj 139 735 s \$0-notamidi;
#X obj 140 676 pack 0 0 1;
#X obj 563 765 s \$0-iiwu;
#X msg 563 718 prog 1 \$1;
#X msg 643 718 p 2 \$1;
#X floatatom 563 688 5 0 0 0 - - -, f 5;
#X floatatom 643 688 5 0 0 0 - - -, f 5;
#X msg 717 712 bank 1 \$1;
#X floatatom 717 693 5 0 0 0 - - -, f 5;
#X text 717 733 bank select;
#X obj 616 401 r \$0-iiwu;
#X msg 527 632 1;
#X msg 556 634 2;
#X msg 590 633 3;
#X msg 624 633 4;
#X msg 654 633 5;
#X msg 146 574 0;
#X msg 220 573 127;
#X msg 181 574 64;
#X obj 555 495 *~ 0.1;
#X obj 614 495 *~ 0.1, f 7;
#X obj 878 337 hsl 128 15 0 1 0 1 empty empty empty -2 -8 0 10 #fcfcfc
#000000 #000000 12450 1;
#X floatatom 878 360 5 0 0 0 - - -, f 5;
#X obj 878 384 s $volume;
#X obj 639 447 r $volume;
#X msg 492 632 0;
#X obj 105 412 moses 71;
#X floatatom 154 445 5 0 0 0 - - -, f 5;
#X obj 869 501 key;
#X obj 103 535 + \$1;
#X floatatom 868 530 5 0 0 0 - - -, f 5;
#X msg 851 621 0;
#X msg 1087 625 6;
#X obj 866 563 sel 49 50 51 52 53 54 55;
#X msg 888 619 3;
#X msg 931 619 5;
#X msg 973 622 7;
#X msg 1010 624 9;
#X msg 1049 624 12;
#X obj 105 381 routeOSC /sensor;
#X floatatom 103 775 5 0 0 0 - - -, f 5;
#X obj 862 135 loadbang;
#X obj 914 233 dsp;
#X floatatom 915 277 5 0 0 0 - - -, f 5;
#X floatatom 931 256 5 0 0 0 - - -, f 5;
#X obj 914 215 tgl 15 0 empty empty empty 17 7 0 10 #fcfcfc #000000
#000000 0 1;
#X msg 913 195 0;
#X obj 875 168 t b b;
#X obj 877 299 s \$0-loadsf2;
#X obj 550 170 bng 15 250 50 0 empty empty empty 17 7 0 10 #fcfcfc
#000000 #000000;
#X obj 230 535 loadbang;
#X msg 258 574 1500;
#X text 825 107 Controles Básicos;
#X msg 104 233 rtscts 1;
#X obj 104 185 t b b b;
#X obj 150 497 r $pitch_shift;
#X obj 853 688 s $pitch_shift;
#X text 43 101 Recebe comandos OSC e Produz notas MIDI;
#X text 478 104 Módulo que carrega o SoundFont e executa as notas
MIDI;
#X text 824 443 Controles de Pitch Shifting via teclado do PC;
#X text 919 541 Teclas de 1 a 7;
#X text 43 10 Patch que acompanha o projeto Arduino_OSC_SLIP Exemplo
da pasta OSC_LIDAR_US que utiliza Comandos OSC enviador por um arduino
via SLIP, f 47;
#X text 514 16 Autor: Sandro Benigno;
#X text 842 12 Repositório do LAC - EBA UFMG Disponível em: https://github.com/LAC-EBA-UFMG/Arduino_OSC_SLIP
, f 50;
#X text 142 775 Pitch final somado ao valor enviado via teclado do
PC, f 29;
#X text 117 474 Escala correspondente a cada valor recebidovia OSC
;
#X text 239 215 Coloque aqui o número da porta serial ocupada pelo
Arduino, f 30;
#X text 126 148 Verifique o número da porta \, antes de clicar aqui
para abrir a conexão serial, f 39;
#X text 243 188 Clique para exibir os dispositivos;
#X text 230 251 Clique para fechar a conexão;
#X text 605 322 Clique para escolher manualmente;
#X msg 574 235 sound/JR_noises2.SF2;
#X obj 556 606 loadbang;
#X connect 6 0 14 0;
#X connect 7 0 6 0;
#X connect 7 1 8 0;
#X connect 9 0 7 0;
#X connect 10 0 7 0;
#X connect 11 0 7 0;
#X connect 12 0 7 0;
#X connect 13 0 88 0;
#X connect 14 0 73 0;
#X connect 15 0 16 1;
#X connect 16 1 20 0;
#X connect 17 0 35 0;
#X connect 17 1 35 1;
#X connect 18 0 17 1;
#X connect 19 0 17 2;
#X connect 20 0 63 0;
#X connect 21 0 53 0;
#X connect 21 1 54 0;
#X connect 22 0 23 0;
#X connect 23 0 24 0;
#X connect 24 0 21 0;
#X connect 26 0 25 0;
#X connect 26 0 21 0;
#X connect 28 0 31 1;
#X connect 29 0 105 0;
#X connect 29 1 28 0;
#X connect 30 0 29 0;
#X connect 31 0 32 0;
#X connect 32 0 21 0;
#X connect 33 0 34 0;
#X connect 35 0 33 0;
#X connect 37 0 36 0;
#X connect 38 0 36 0;
#X connect 39 0 37 0;
#X connect 40 0 38 0;
#X connect 41 0 36 0;
#X connect 42 0 41 0;
#X connect 44 0 21 0;
#X connect 45 0 39 0;
#X connect 46 0 39 0;
#X connect 47 0 39 0;
#X connect 48 0 39 0;
#X connect 49 0 39 0;
#X connect 50 0 18 0;
#X connect 51 0 18 0;
#X connect 52 0 18 0;
#X connect 53 0 27 0;
#X connect 54 0 27 1;
#X connect 55 0 56 0;
#X connect 56 0 57 0;
#X connect 58 0 53 1;
#X connect 58 0 54 1;
#X connect 59 0 39 0;
#X connect 60 0 15 0;
#X connect 60 1 61 0;
#X connect 62 0 64 0;
#X connect 63 0 17 0;
#X connect 63 0 74 0;
#X connect 64 0 67 0;
#X connect 65 0 90 0;
#X connect 66 0 90 0;
#X connect 67 0 65 0;
#X connect 67 1 68 0;
#X connect 67 2 69 0;
#X connect 67 3 70 0;
#X connect 67 4 71 0;
#X connect 67 5 72 0;
#X connect 67 6 66 0;
#X connect 68 0 90 0;
#X connect 69 0 90 0;
#X connect 70 0 90 0;
#X connect 71 0 90 0;
#X connect 72 0 90 0;
#X connect 73 0 60 0;
#X connect 73 1 4 0;
#X connect 75 0 81 0;
#X connect 76 0 77 0;
#X connect 76 1 78 0;
#X connect 79 0 76 0;
#X connect 80 0 79 0;
#X connect 81 0 82 0;
#X connect 81 1 80 0;
#X connect 83 0 29 0;
#X connect 84 0 52 0;
#X connect 84 0 85 0;
#X connect 85 0 19 0;
#X connect 87 0 7 0;
#X connect 88 0 87 0;
#X connect 88 1 11 0;
#X connect 88 2 10 0;
#X connect 89 0 63 1;
#X connect 105 0 31 0;
#X connect 106 0 46 0;
